<svg version="1.1" id="Layer_1" xmlns="http://www.w3.org/2000/svg" xmlns:xlink="http://www.w3.org/1999/xlink" x="0px" y="0px"
	 width="100%" viewBox="0 0 512 512" enable-background="new 0 0 512 512" xml:space="preserve">
<path fill="#000000" opacity="1.000000" stroke="none" 
	d="
M513.000000,176.000000 
	C513.000000,288.639282 513.000000,400.778564 513.000000,512.958923 
	C342.402374,512.958923 171.804733,512.958923 1.103551,512.958923 
	C1.103551,342.444092 1.103551,171.888077 1.103551,1.166036 
	C171.666534,1.166036 342.333252,1.166036 513.000000,1.166036 
	C513.000000,59.195225 513.000000,117.347610 513.000000,176.000000 
M9.007386,78.969162 
	C9.004775,212.131729 9.053958,345.294373 8.925080,478.456818 
	C8.911111,492.890747 21.139372,505.083435 35.487137,505.072083 
	C183.149338,504.955231 330.811676,504.954468 478.473877,505.072998 
	C492.889771,505.084564 505.083069,492.899109 505.070129,478.516144 
	C504.951660,346.686829 505.000854,214.857361 504.996643,83.027946 
	C504.996613,81.362663 504.938324,79.697372 505.024414,77.100853 
	C505.015594,63.441422 505.004852,49.781986 504.998413,36.122555 
	C504.990936,20.177944 493.840271,9.003374 477.919250,9.003227 
	C330.664062,9.001861 183.408859,9.002424 36.153667,9.002441 
	C35.320778,9.002442 34.487476,8.985564 33.655056,9.005363 
	C21.022991,9.305802 9.172504,20.952530 9.045280,33.572155 
	C8.895860,48.393452 9.067867,63.217991 9.007386,78.969162 
z"/>
<path fill="#E1EFFF" opacity="1.000000" stroke="none" 
	d="
M504.907227,78.032089 
	C504.938324,79.697372 504.996613,81.362663 504.996643,83.027946 
	C505.000854,214.857361 504.951660,346.686829 505.070129,478.516144 
	C505.083069,492.899109 492.889771,505.084564 478.473877,505.072998 
	C330.811676,504.954468 183.149338,504.955231 35.487137,505.072083 
	C21.139372,505.083435 8.911111,492.890747 8.925080,478.456818 
	C9.053958,345.294373 9.004775,212.131729 9.512072,78.448303 
	C11.016383,77.912277 12.016010,77.883850 13.015636,77.883842 
	C175.649612,77.881927 338.283600,77.881691 500.917572,77.888290 
	C502.247467,77.888344 503.577332,77.982094 504.907227,78.032089 
M84.020912,205.822159 
	C81.855453,205.846146 79.689590,205.850861 77.524612,205.897293 
	C63.468887,206.198624 52.284779,216.817917 52.207417,230.915527 
	C51.987083,271.067169 51.989532,311.221619 52.208752,351.373291 
	C52.282001,364.789978 62.153244,374.844543 75.565979,376.219025 
	C78.707314,376.540985 81.873451,376.621002 85.285172,377.479523 
	C87.732643,381.637970 90.013893,385.905151 92.652344,389.938660 
	C137.825943,458.997192 219.399979,492.354248 300.392029,473.901947 
	C357.537445,460.882568 400.595245,428.360779 429.845367,376.658478 
	C432.671814,376.522003 435.511475,376.514496 438.322510,376.227234 
	C452.186859,374.810333 461.794220,364.518738 461.837891,350.470886 
	C461.961151,310.811554 461.964020,271.151337 461.828278,231.492126 
	C461.784882,218.811996 453.070801,208.404846 441.016571,206.298050 
	C437.115021,205.616165 433.051056,205.863480 428.867371,205.051331 
	C420.724731,189.829498 410.769196,175.882385 398.727997,163.532333 
	C339.770660,103.062790 251.619812,86.280159 174.653534,121.365387 
	C135.386459,139.265366 105.263931,167.392471 84.020912,205.822159 
z"/>
<path fill="#3D5D88" opacity="1.000000" stroke="none" 
	d="
M504.965820,77.566467 
	C503.577332,77.982094 502.247467,77.888344 500.917572,77.888290 
	C338.283600,77.881691 175.649612,77.881927 13.015636,77.883842 
	C12.016010,77.883850 11.016383,77.912277 9.558616,77.984283 
	C9.067867,63.217991 8.895860,48.393452 9.045280,33.572155 
	C9.172504,20.952530 21.022991,9.305802 33.655056,9.005363 
	C34.487476,8.985564 35.320778,9.002442 36.153667,9.002441 
	C183.408859,9.002424 330.664062,9.001861 477.919250,9.003227 
	C493.840271,9.003374 504.990936,20.177944 504.998413,36.122555 
	C505.004852,49.781986 505.015594,63.441422 504.965820,77.566467 
M478.932465,44.263287 
	C478.091095,37.889339 475.095642,35.050655 468.862030,35.030643 
	C452.893097,34.979378 436.923706,34.971100 420.954834,35.033165 
	C414.356445,35.058815 410.954651,38.065243 410.954407,43.550793 
	C410.954163,49.184296 414.190094,52.008839 420.827362,52.020706 
	C436.630066,52.048969 452.435944,51.852924 468.234009,52.126045 
	C473.776825,52.221874 477.012421,49.963306 478.932465,44.263287 
M42.155430,52.006054 
	C45.471474,52.042992 48.792660,52.213387 52.102364,52.085823 
	C57.156876,51.891014 60.763649,48.287647 60.778942,43.667774 
	C60.793980,39.125526 57.161106,35.454422 52.138420,35.111042 
	C49.826588,34.952995 47.494995,35.108917 45.173748,35.058533 
	C40.297279,34.952690 36.603268,36.865334 35.435154,41.764290 
	C34.252148,46.725700 36.749802,50.014481 42.155430,52.006054 
M128.164413,35.140865 
	C122.268990,37.064209 119.882736,40.219917 120.679718,45.039028 
	C121.447647,49.682457 124.684891,52.039188 130.480392,52.124912 
	C132.799606,52.159218 135.124695,52.210606 137.438797,52.092007 
	C142.613510,51.826817 146.000717,48.450211 146.008987,43.678734 
	C146.017075,38.999081 142.578400,35.450386 137.478317,35.122623 
	C134.672943,34.942326 131.846603,35.087757 128.164413,35.140865 
M102.714470,40.343845 
	C98.877892,34.696774 85.847572,32.470638 81.115143,37.283756 
	C79.165092,39.267067 77.800194,43.483105 78.538521,45.984154 
	C79.270424,48.463467 82.721390,50.673019 85.472153,51.856705 
	C87.718063,52.823139 90.690399,52.157913 93.339317,52.120510 
	C100.762436,52.015694 103.590752,48.760662 102.714470,40.343845 
z"/>
<path fill="#496E9C" opacity="1.000000" stroke="none" 
	d="
M85.028175,376.812347 
	C81.873451,376.621002 78.707314,376.540985 75.565979,376.219025 
	C62.153244,374.844543 52.282001,364.789978 52.208752,351.373291 
	C51.989532,311.221619 51.987083,271.067169 52.207417,230.915527 
	C52.284779,216.817917 63.468887,206.198624 77.524612,205.897293 
	C79.689590,205.850861 81.855453,205.846146 84.940018,205.836761 
	C92.254677,205.799393 98.650215,205.747406 105.505707,205.771179 
	C125.632225,205.791565 145.298798,205.736191 165.428528,205.761200 
	C171.874893,205.698822 177.858109,205.556046 184.242493,205.544037 
	C205.751297,205.683578 226.858917,205.692368 248.430420,205.778351 
	C254.607315,205.804077 260.320343,205.752609 266.494934,205.774445 
	C281.733032,205.865692 296.509735,205.932999 311.285980,205.878311 
	C317.577393,205.855042 323.867828,205.576599 330.530731,205.563293 
	C336.946869,205.701935 342.990997,205.691376 349.495361,205.761917 
	C369.621521,205.793823 389.287445,205.744644 409.418304,205.773438 
	C416.275970,205.796188 422.668701,205.740967 429.061401,205.685745 
	C433.051056,205.863480 437.115021,205.616165 441.016571,206.298050 
	C453.070801,208.404846 461.784882,218.811996 461.828278,231.492126 
	C461.964020,271.151337 461.961151,310.811554 461.837891,350.470886 
	C461.794220,364.518738 452.186859,374.810333 438.322510,376.227234 
	C435.511475,376.514496 432.671814,376.522003 429.050385,376.538818 
	C421.810486,376.500275 415.365570,376.581360 408.476257,376.522400 
	C392.654358,376.343353 377.276794,376.262909 361.899384,376.290833 
	C357.293854,376.299194 352.688843,376.610138 347.642639,376.608826 
	C341.455475,376.497070 335.709320,376.558929 329.510132,376.497406 
	C319.293488,376.337982 309.529541,376.234894 299.766357,376.283508 
	C288.527008,376.339478 277.288300,376.529480 265.599792,376.520874 
	C259.417358,376.474121 253.684479,376.567719 247.503204,376.522949 
	C240.932587,376.345062 234.810013,376.244690 228.688156,376.278046 
	C213.804413,376.359100 198.920990,376.502258 183.586655,376.486816 
	C177.396408,376.496216 171.656937,376.639191 165.481354,376.610901 
	C157.607910,376.381622 150.170181,376.244324 142.733383,376.283295 
	C130.181976,376.349091 117.631157,376.526581 104.628082,376.517792 
	C97.793449,376.523102 91.410812,376.667725 85.028175,376.812347 
M117.517059,340.146942 
	C118.524452,336.928375 120.333519,333.726685 120.401840,330.488312 
	C120.714615,315.663849 120.532913,300.829102 120.550659,285.998047 
	C120.552444,284.506195 120.701538,283.014496 120.782265,281.522736 
	C132.732330,299.744202 143.676239,318.000610 154.654587,336.236328 
	C157.816299,341.488159 161.224808,343.318146 165.611069,341.878967 
	C170.497589,340.275726 171.805008,336.363464 171.798187,331.621826 
	C171.759262,304.626038 171.799728,277.630157 171.763382,250.634354 
	C171.754364,243.934799 168.493805,240.020218 163.151840,240.000839 
	C157.724854,239.981125 154.722702,243.677460 154.705887,250.618958 
	C154.667938,266.283112 154.699722,281.947449 154.678604,297.611664 
	C154.677017,298.785583 154.480301,299.959198 154.272690,302.258026 
	C152.787689,299.864410 151.906418,298.483429 151.063568,297.079346 
	C140.782593,279.952576 130.469269,262.844971 120.257889,245.676773 
	C117.790092,241.527710 114.589592,238.946960 109.638016,240.325333 
	C104.949509,241.630447 103.291145,245.336594 103.290962,249.940613 
	C103.289894,277.436371 103.211830,304.932495 103.336632,332.427673 
	C103.374886,340.855164 109.204247,344.226990 117.517059,340.146942 
M282.709045,294.302368 
	C282.708679,279.975189 282.730927,265.647949 282.698517,251.320847 
	C282.682037,244.044342 279.718567,240.131866 274.264771,240.003555 
	C268.595978,239.870193 265.569305,243.798813 265.469635,251.423462 
	C265.460907,252.089737 265.466675,252.756210 265.466675,253.422592 
	C265.466553,278.578583 265.458313,303.734558 265.481140,328.890564 
	C265.483093,331.049652 265.475586,333.246429 265.847351,335.359741 
	C266.642517,339.879730 270.401855,343.050171 274.792908,341.947632 
	C277.506744,341.266174 280.494385,339.115509 282.031586,336.758606 
	C288.090271,327.469147 293.623474,317.836945 299.372192,308.298004 
	C299.911285,308.706329 300.266998,308.851013 300.426208,309.114441 
	C305.933868,318.228119 311.263947,327.455322 317.023590,336.406250 
	C318.514465,338.723175 321.072632,341.100098 323.611481,341.845642 
	C329.501068,343.575073 333.857330,339.094910 333.868286,331.859406 
	C333.909454,304.704315 333.885559,277.549164 333.878082,250.394012 
	C333.877808,249.396484 333.903107,248.379868 333.731476,247.404709 
	C332.910950,242.742706 329.033234,239.654373 324.540100,240.013809 
	C320.198914,240.361084 317.137146,243.614471 316.880463,248.353973 
	C316.736481,251.012146 316.824890,253.683395 316.824341,256.348755 
	C316.821198,271.259033 316.822815,286.169312 316.822815,301.079590 
	C313.329071,297.225739 310.821289,293.026703 308.249756,288.867004 
	C303.273895,280.818146 296.053558,280.798523 291.095581,288.815948 
	C288.622498,292.815033 286.204285,296.848053 283.761261,300.865723 
	C283.410461,300.753906 283.059631,300.642120 282.708832,300.530304 
	C282.708832,298.765167 282.708832,297.000061 282.709045,294.302368 
M365.333710,295.287262 
	C370.881317,296.813171 376.353027,298.776764 381.995605,299.754761 
	C389.129242,300.991241 393.941650,306.439178 393.314087,313.687805 
	C392.717621,320.577240 387.081207,325.490082 380.026764,325.085175 
	C373.491516,324.710083 369.976654,320.784027 368.052460,314.821930 
	C366.324890,309.469208 361.962311,307.115631 357.313385,308.650818 
	C352.548767,310.224152 350.513977,314.391907 351.845062,319.851074 
	C355.130341,333.324738 367.421387,342.491302 381.764221,342.164581 
	C395.525726,341.851074 407.613953,331.621765 409.962158,318.302917 
	C412.507996,303.863068 405.416443,290.230408 392.178711,285.074036 
	C388.235901,283.538208 383.802094,283.214630 379.567047,282.488495 
	C372.822083,281.331970 368.427704,276.912109 368.013184,270.676910 
	C367.585968,264.251373 371.924438,258.578735 378.292938,257.235901 
	C384.764343,255.871414 390.557068,259.615509 393.116669,266.817169 
	C395.137146,272.501801 399.289429,275.129364 404.023956,273.719147 
	C408.970093,272.245911 411.097229,267.436127 409.402100,261.558319 
	C405.089478,246.604630 389.727966,237.171066 374.894043,240.595123 
	C362.159088,243.534698 353.938354,251.422668 351.532043,264.325867 
	C349.128693,277.213165 353.925079,287.474823 365.333710,295.287262 
M204.159225,342.057922 
	C215.977493,342.109467 227.797073,342.285858 239.613495,342.161896 
	C245.876816,342.096191 249.633789,337.142883 247.990219,331.437561 
	C246.623718,326.694000 242.933762,325.172089 238.368988,325.169434 
	C230.452637,325.164856 222.536301,325.168152 214.560822,325.168152 
	C214.560822,316.332916 214.560822,308.258789 214.560822,299.620392 
	C217.851044,299.620392 220.866257,299.929626 223.792313,299.550598 
	C228.629868,298.923981 231.501450,295.179382 231.216522,290.510712 
	C230.945374,286.067749 227.864594,283.061462 223.033066,282.772827 
	C220.275146,282.608093 217.499329,282.743011 214.236313,282.743011 
	C214.236313,277.858490 214.236298,273.734711 214.236298,269.610962 
	C214.236298,265.510895 214.236313,261.410797 214.236313,257.003326 
	C222.735016,257.003326 230.543488,257.046356 238.351273,256.989807 
	C244.688354,256.943878 248.360428,253.705093 248.306458,248.367615 
	C248.252853,243.065674 244.606842,239.998550 238.153397,239.972229 
	C227.997528,239.930801 217.841248,239.928650 207.685394,239.972992 
	C200.390869,240.004852 197.205200,243.034927 197.190643,250.214767 
	C197.135315,277.519409 197.177994,304.824188 197.157120,332.128937 
	C197.153610,336.725403 198.755981,340.229828 204.159225,342.057922 
z"/>
<path fill="#A4B038" opacity="1.000000" stroke="none" 
	d="
M85.156677,377.145935 
	C91.410812,376.667725 97.793449,376.523102 104.687759,376.810913 
	C111.810638,386.337372 117.691666,396.088776 125.173164,404.399384 
	C145.667892,427.165314 170.662720,443.346497 200.027740,452.520325 
	C201.462738,452.968628 202.912338,453.370270 204.708954,453.897491 
	C204.490509,452.715973 204.539154,452.309814 204.359085,452.100586 
	C191.816589,437.531525 181.524445,421.511475 174.442673,403.640686 
	C170.990707,394.929657 168.721863,385.749786 165.917480,376.782166 
	C171.656937,376.639191 177.396408,376.496216 183.574707,376.848816 
	C184.147842,378.490784 184.100708,379.694763 184.443527,380.775024 
	C190.259445,399.101318 198.250732,416.452454 209.714783,431.891724 
	C218.369644,443.547668 228.519501,453.838928 242.680313,459.091064 
	C246.439590,460.485352 248.108047,460.082520 248.080368,455.494781 
	C247.921860,429.217651 247.972168,402.939270 247.951584,376.661316 
	C253.684479,376.567719 259.417358,376.474121 265.581970,376.931885 
	C266.004517,403.316254 265.985687,429.149292 265.994080,454.982330 
	C265.995850,460.404877 266.866913,461.315063 271.724884,458.789917 
	C278.154266,455.447937 284.608154,451.774811 290.136261,447.149933 
	C305.174316,434.569000 314.471344,417.754639 322.230835,400.154480 
	C325.545929,392.635132 327.429260,384.484558 329.963165,376.620789 
	C335.709320,376.558929 341.455475,376.497070 347.624756,376.964844 
	C347.930756,378.816101 348.035706,380.204102 347.663574,381.449524 
	C341.233337,402.968719 331.807007,423.031433 318.374115,441.112061 
	C315.384216,445.136475 312.235046,449.042572 309.159210,453.003174 
	C309.440796,453.439789 309.722351,453.876404 310.003937,454.313019 
	C319.021820,450.695740 328.263489,447.547302 337.013977,443.369965 
	C359.849304,432.468750 379.154572,416.875000 395.033142,397.227295 
	C400.213226,390.817627 404.321930,383.542023 408.920654,376.662476 
	C415.365570,376.581360 421.810486,376.500275 428.608337,376.613647 
	C400.595245,428.360779 357.537445,460.882568 300.392029,473.901947 
	C219.399979,492.354248 137.825943,458.997192 92.652344,389.938660 
	C90.013893,385.905151 87.732643,381.637970 85.156677,377.145935 
z"/>
<path fill="#A4B039" opacity="1.000000" stroke="none" 
	d="
M428.964386,205.368530 
	C422.668701,205.740967 416.275970,205.796188 409.368866,205.448135 
	C385.793854,166.132492 351.845642,141.413239 308.837860,128.320023 
	C327.859863,151.265686 341.445129,176.917694 349.035126,205.680832 
	C342.990997,205.691376 336.946869,205.701935 330.486023,205.121185 
	C329.578644,202.439331 329.377319,200.225739 328.549255,198.278687 
	C324.003723,187.590469 319.912354,176.647736 314.517700,166.396164 
	C306.160187,150.514236 295.261353,136.516052 279.516876,127.121353 
	C275.649719,124.813835 271.244781,123.407501 266.033356,121.125427 
	C266.033356,150.253906 266.033356,177.977524 266.033356,205.701141 
	C260.320343,205.752609 254.607315,205.804077 248.441620,205.333466 
	C247.988922,177.326996 247.988922,149.842575 247.988922,121.903419 
	C237.333710,124.193939 229.647919,129.541199 222.608109,135.927689 
	C209.183914,148.106110 199.999313,163.292984 192.835373,179.675995 
	C189.204880,187.978516 186.800201,196.817047 183.841324,205.413254 
	C177.858109,205.556046 171.874893,205.698822 165.501129,205.406647 
	C172.574615,177.151855 185.868088,152.272675 204.817993,129.219299 
	C202.415604,129.219299 201.494110,128.953918 200.836487,129.258423 
	C187.296280,135.528168 173.295105,141.006805 160.396637,148.405365 
	C144.935181,157.274063 131.588425,169.201706 120.458138,183.227524 
	C114.826279,190.324493 110.152649,198.181854 105.045761,205.695404 
	C98.650215,205.747406 92.254677,205.799393 85.394241,205.768860 
	C105.263931,167.392471 135.386459,139.265366 174.653534,121.365387 
	C251.619812,86.280159 339.770660,103.062790 398.727997,163.532333 
	C410.769196,175.882385 420.724731,189.829498 428.964386,205.368530 
M205.419083,128.484970 
	C205.419083,128.484970 205.515259,128.431396 205.419083,128.484970 
z"/>
<path fill="#1B3652" opacity="1.000000" stroke="none" 
	d="
M478.876953,44.646400 
	C477.012421,49.963306 473.776825,52.221874 468.234009,52.126045 
	C452.435944,51.852924 436.630066,52.048969 420.827362,52.020706 
	C414.190094,52.008839 410.954163,49.184296 410.954407,43.550793 
	C410.954651,38.065243 414.356445,35.058815 420.954834,35.033165 
	C436.923706,34.971100 452.893097,34.979378 468.862030,35.030643 
	C475.095642,35.050655 478.091095,37.889339 478.876953,44.646400 
z"/>
<path fill="#FAFBFC" opacity="1.000000" stroke="none" 
	d="
M41.736240,51.937912 
	C36.749802,50.014481 34.252148,46.725700 35.435154,41.764290 
	C36.603268,36.865334 40.297279,34.952690 45.173748,35.058533 
	C47.494995,35.108917 49.826588,34.952995 52.138420,35.111042 
	C57.161106,35.454422 60.793980,39.125526 60.778942,43.667774 
	C60.763649,48.287647 57.156876,51.891014 52.102364,52.085823 
	C48.792660,52.213387 45.471474,52.042992 41.736240,51.937912 
z"/>
<path fill="#FBFCFD" opacity="1.000000" stroke="none" 
	d="
M128.597076,35.113598 
	C131.846603,35.087757 134.672943,34.942326 137.478317,35.122623 
	C142.578400,35.450386 146.017075,38.999081 146.008987,43.678734 
	C146.000717,48.450211 142.613510,51.826817 137.438797,52.092007 
	C135.124695,52.210606 132.799606,52.159218 130.480392,52.124912 
	C124.684891,52.039188 121.447647,49.682457 120.679718,45.039028 
	C119.882736,40.219917 122.268990,37.064209 128.597076,35.113598 
z"/>
<path fill="#FBFCFD" opacity="1.000000" stroke="none" 
	d="
M102.837997,40.734253 
	C103.590752,48.760662 100.762436,52.015694 93.339317,52.120510 
	C90.690399,52.157913 87.718063,52.823139 85.472153,51.856705 
	C82.721390,50.673019 79.270424,48.463467 78.538521,45.984154 
	C77.800194,43.483105 79.165092,39.267067 81.115143,37.283756 
	C85.847572,32.470638 98.877892,34.696774 102.837997,40.734253 
z"/>
<path fill="#FBFCFD" opacity="1.000000" stroke="none" 
	d="
M117.215515,340.409454 
	C109.204247,344.226990 103.374886,340.855164 103.336632,332.427673 
	C103.211830,304.932495 103.289894,277.436371 103.290962,249.940613 
	C103.291145,245.336594 104.949509,241.630447 109.638016,240.325333 
	C114.589592,238.946960 117.790092,241.527710 120.257889,245.676773 
	C130.469269,262.844971 140.782593,279.952576 151.063568,297.079346 
	C151.906418,298.483429 152.787689,299.864410 154.272690,302.258026 
	C154.480301,299.959198 154.677017,298.785583 154.678604,297.611664 
	C154.699722,281.947449 154.667938,266.283112 154.705887,250.618958 
	C154.722702,243.677460 157.724854,239.981125 163.151840,240.000839 
	C168.493805,240.020218 171.754364,243.934799 171.763382,250.634354 
	C171.799728,277.630157 171.759262,304.626038 171.798187,331.621826 
	C171.805008,336.363464 170.497589,340.275726 165.611069,341.878967 
	C161.224808,343.318146 157.816299,341.488159 154.654587,336.236328 
	C143.676239,318.000610 132.732330,299.744202 120.782265,281.522736 
	C120.701538,283.014496 120.552444,284.506195 120.550659,285.998047 
	C120.532913,300.829102 120.714615,315.663849 120.401840,330.488312 
	C120.333519,333.726685 118.524452,336.928375 117.215515,340.409454 
z"/>
<path fill="#FCFDFE" opacity="1.000000" stroke="none" 
	d="
M282.708923,294.768677 
	C282.708832,297.000061 282.708832,298.765167 282.708832,300.530304 
	C283.059631,300.642120 283.410461,300.753906 283.761261,300.865723 
	C286.204285,296.848053 288.622498,292.815033 291.095581,288.815948 
	C296.053558,280.798523 303.273895,280.818146 308.249756,288.867004 
	C310.821289,293.026703 313.329071,297.225739 316.822815,301.079590 
	C316.822815,286.169312 316.821198,271.259033 316.824341,256.348755 
	C316.824890,253.683395 316.736481,251.012146 316.880463,248.353973 
	C317.137146,243.614471 320.198914,240.361084 324.540100,240.013809 
	C329.033234,239.654373 332.910950,242.742706 333.731476,247.404709 
	C333.903107,248.379868 333.877808,249.396484 333.878082,250.394012 
	C333.885559,277.549164 333.909454,304.704315 333.868286,331.859406 
	C333.857330,339.094910 329.501068,343.575073 323.611481,341.845642 
	C321.072632,341.100098 318.514465,338.723175 317.023590,336.406250 
	C311.263947,327.455322 305.933868,318.228119 300.426208,309.114441 
	C300.266998,308.851013 299.911285,308.706329 299.372192,308.298004 
	C293.623474,317.836945 288.090271,327.469147 282.031586,336.758606 
	C280.494385,339.115509 277.506744,341.266174 274.792908,341.947632 
	C270.401855,343.050171 266.642517,339.879730 265.847351,335.359741 
	C265.475586,333.246429 265.483093,331.049652 265.481140,328.890564 
	C265.458313,303.734558 265.466553,278.578583 265.466675,253.422592 
	C265.466675,252.756210 265.460907,252.089737 265.469635,251.423462 
	C265.569305,243.798813 268.595978,239.870193 274.264771,240.003555 
	C279.718567,240.131866 282.682037,244.044342 282.698517,251.320847 
	C282.730927,265.647949 282.708679,279.975189 282.708923,294.768677 
z"/>
<path fill="#B7CC3B" opacity="1.000000" stroke="none" 
	d="
M329.510132,376.497437 
	C327.429260,384.484558 325.545929,392.635132 322.230835,400.154480 
	C314.471344,417.754639 305.174316,434.569000 290.136261,447.149933 
	C284.608154,451.774811 278.154266,455.447937 271.724884,458.789917 
	C266.866913,461.315063 265.995850,460.404877 265.994080,454.982330 
	C265.985687,429.149292 266.004517,403.316254 266.031494,377.072235 
	C277.288300,376.529480 288.527008,376.339478 299.766357,376.283508 
	C309.529541,376.234894 319.293488,376.337982 329.510132,376.497437 
z"/>
<path fill="#B7CC3B" opacity="1.000000" stroke="none" 
	d="
M247.503204,376.522949 
	C247.972168,402.939270 247.921860,429.217651 248.080368,455.494781 
	C248.108047,460.082520 246.439590,460.485352 242.680313,459.091064 
	C228.519501,453.838928 218.369644,443.547668 209.714783,431.891724 
	C198.250732,416.452454 190.259445,399.101318 184.443527,380.775024 
	C184.100708,379.694763 184.147842,378.490784 184.025482,376.982391 
	C198.920990,376.502258 213.804413,376.359100 228.688156,376.278046 
	C234.810013,376.244690 240.932587,376.345062 247.503204,376.522949 
z"/>
<path fill="#B7CC3B" opacity="1.000000" stroke="none" 
	d="
M266.494934,205.774445 
	C266.033356,177.977524 266.033356,150.253906 266.033356,121.125427 
	C271.244781,123.407501 275.649719,124.813835 279.516876,127.121353 
	C295.261353,136.516052 306.160187,150.514236 314.517700,166.396164 
	C319.912354,176.647736 324.003723,187.590469 328.549255,198.278687 
	C329.377319,200.225739 329.578644,202.439331 330.114014,204.972000 
	C323.867828,205.576599 317.577393,205.855042 311.285980,205.878311 
	C296.509735,205.932999 281.733032,205.865692 266.494934,205.774445 
z"/>
<path fill="#B7CC3B" opacity="1.000000" stroke="none" 
	d="
M184.242493,205.544037 
	C186.800201,196.817047 189.204880,187.978516 192.835373,179.675995 
	C199.999313,163.292984 209.183914,148.106110 222.608109,135.927689 
	C229.647919,129.541199 237.333710,124.193939 247.988922,121.903419 
	C247.988922,149.842575 247.988922,177.326996 247.977737,205.256287 
	C226.858917,205.692368 205.751297,205.683578 184.242493,205.544037 
z"/>
<path fill="#FCFDFE" opacity="1.000000" stroke="none" 
	d="
M365.012726,295.112305 
	C353.925079,287.474823 349.128693,277.213165 351.532043,264.325867 
	C353.938354,251.422668 362.159088,243.534698 374.894043,240.595123 
	C389.727966,237.171066 405.089478,246.604630 409.402100,261.558319 
	C411.097229,267.436127 408.970093,272.245911 404.023956,273.719147 
	C399.289429,275.129364 395.137146,272.501801 393.116669,266.817169 
	C390.557068,259.615509 384.764343,255.871414 378.292938,257.235901 
	C371.924438,258.578735 367.585968,264.251373 368.013184,270.676910 
	C368.427704,276.912109 372.822083,281.331970 379.567047,282.488495 
	C383.802094,283.214630 388.235901,283.538208 392.178711,285.074036 
	C405.416443,290.230408 412.507996,303.863068 409.962158,318.302917 
	C407.613953,331.621765 395.525726,341.851074 381.764221,342.164581 
	C367.421387,342.491302 355.130341,333.324738 351.845062,319.851074 
	C350.513977,314.391907 352.548767,310.224152 357.313385,308.650818 
	C361.962311,307.115631 366.324890,309.469208 368.052460,314.821930 
	C369.976654,320.784027 373.491516,324.710083 380.026764,325.085175 
	C387.081207,325.490082 392.717621,320.577240 393.314087,313.687805 
	C393.941650,306.439178 389.129242,300.991241 381.995605,299.754761 
	C376.353027,298.776764 370.881317,296.813171 365.012726,295.112305 
z"/>
<path fill="#B7CC3B" opacity="1.000000" stroke="none" 
	d="
M408.476257,376.522400 
	C404.321930,383.542023 400.213226,390.817627 395.033142,397.227295 
	C379.154572,416.875000 359.849304,432.468750 337.013977,443.369965 
	C328.263489,447.547302 319.021820,450.695740 310.003937,454.313019 
	C309.722351,453.876404 309.440796,453.439789 309.159210,453.003174 
	C312.235046,449.042572 315.384216,445.136475 318.374115,441.112061 
	C331.807007,423.031433 341.233337,402.968719 347.663574,381.449524 
	C348.035706,380.204102 347.930756,378.816101 348.065735,377.138458 
	C352.688843,376.610138 357.293854,376.299194 361.899384,376.290833 
	C377.276794,376.262909 392.654358,376.343353 408.476257,376.522400 
z"/>
<path fill="#B7CC3B" opacity="1.000000" stroke="none" 
	d="
M165.481354,376.610901 
	C168.721863,385.749786 170.990707,394.929657 174.442673,403.640686 
	C181.524445,421.511475 191.816589,437.531525 204.359085,452.100586 
	C204.539154,452.309814 204.490509,452.715973 204.708954,453.897491 
	C202.912338,453.370270 201.462738,452.968628 200.027740,452.520325 
	C170.662720,443.346497 145.667892,427.165314 125.173164,404.399384 
	C117.691666,396.088776 111.810638,386.337372 105.139763,376.950195 
	C117.631157,376.526581 130.181976,376.349091 142.733383,376.283295 
	C150.170181,376.244324 157.607910,376.381622 165.481354,376.610901 
z"/>
<path fill="#B7CC3B" opacity="1.000000" stroke="none" 
	d="
M349.495361,205.761917 
	C341.445129,176.917694 327.859863,151.265686 308.837860,128.320023 
	C351.845642,141.413239 385.793854,166.132492 408.903900,205.370163 
	C389.287445,205.744644 369.621521,205.793823 349.495361,205.761917 
z"/>
<path fill="#B7CC3B" opacity="1.000000" stroke="none" 
	d="
M105.505714,205.771179 
	C110.152649,198.181854 114.826279,190.324493 120.458138,183.227524 
	C131.588425,169.201706 144.935181,157.274063 160.396637,148.405365 
	C173.295105,141.006805 187.296280,135.528168 200.836487,129.258423 
	C201.494110,128.953918 202.415604,129.219299 204.817993,129.219299 
	C185.868088,152.272675 172.574615,177.151855 165.037964,205.326263 
	C145.298798,205.736191 125.632225,205.791565 105.505714,205.771179 
z"/>
<path fill="#FCFDFE" opacity="1.000000" stroke="none" 
	d="
M203.736572,341.987366 
	C198.755981,340.229828 197.153610,336.725403 197.157120,332.128937 
	C197.177994,304.824188 197.135315,277.519409 197.190643,250.214767 
	C197.205200,243.034927 200.390869,240.004852 207.685394,239.972992 
	C217.841248,239.928650 227.997528,239.930801 238.153397,239.972229 
	C244.606842,239.998550 248.252853,243.065674 248.306458,248.367615 
	C248.360428,253.705093 244.688354,256.943878 238.351273,256.989807 
	C230.543488,257.046356 222.735016,257.003326 214.236313,257.003326 
	C214.236313,261.410797 214.236298,265.510895 214.236298,269.610962 
	C214.236298,273.734711 214.236313,277.858490 214.236313,282.743011 
	C217.499329,282.743011 220.275146,282.608093 223.033066,282.772827 
	C227.864594,283.061462 230.945374,286.067749 231.216522,290.510712 
	C231.501450,295.179382 228.629868,298.923981 223.792313,299.550598 
	C220.866257,299.929626 217.851044,299.620392 214.560822,299.620392 
	C214.560822,308.258789 214.560822,316.332916 214.560822,325.168152 
	C222.536301,325.168152 230.452637,325.164856 238.368988,325.169434 
	C242.933762,325.172089 246.623718,326.694000 247.990219,331.437561 
	C249.633789,337.142883 245.876816,342.096191 239.613495,342.161896 
	C227.797073,342.285858 215.977493,342.109467 203.736572,341.987366 
z"/>
<path fill="#B7CC3B" opacity="1.000000" stroke="none" 
	d="
M205.467163,128.458191 
	C205.515259,128.431396 205.419083,128.484970 205.467163,128.458191 
z"/>
</svg>